<svg width="100" height="80" viewBox="0 0 100 80" fill="none" xmlns="http://www.w3.org/2000/svg">
<path d="M87.738 30.488C87.6872 30.0388 87.4177 29.6482 87.0192 29.4489C86.8786 29.3786 83.6911 27.8083 79.1208 26.7301L78.7927 23.5895C78.7224 22.8707 78.2927 22.2614 77.6325 21.9606C74.863 20.6911 60.6015 14.7614 49.8235 21.7223C39.0425 14.7614 24.7845 20.6911 22.0035 21.9606C21.3434 22.2692 20.9137 22.8708 20.8433 23.5817L20.5152 26.7301C16.7066 27.6403 13.8433 28.8785 13.0152 29.2692C12.3551 29.5778 11.9254 30.1794 11.855 30.8903L7.95661 68.2693C7.8863 68.9802 8.19489 69.6599 8.7652 70.0779C9.32379 70.4998 10.0543 70.5974 10.7144 70.3279C10.9839 70.2185 11.2535 70.117 11.5347 70.0193L10.8042 77.0701C10.7261 77.8318 11.0425 78.5584 11.6636 79.0115C12.0425 79.2928 12.4917 79.4334 12.9448 79.4334C13.2339 79.4334 13.5229 79.3748 13.7964 79.2537C28.7264 72.9334 47.1244 76.742 49.2964 77.2225C49.4761 77.2928 49.6675 77.3241 49.855 77.3123C50.0034 77.3123 50.1557 77.2811 50.2964 77.2342C52.2652 76.7928 70.8164 72.8944 85.8354 79.2537C86.5463 79.5545 87.3471 79.4647 87.9643 79.0037C88.5854 78.5545 88.9057 77.824 88.8236 77.0545L88.0932 70.0037C88.7338 70.2342 89.3432 70.492 89.933 70.7654C90.1127 70.8436 90.3041 70.8865 90.4916 70.8865C90.7611 70.8865 91.0228 70.8084 91.2533 70.6482C91.6439 70.3787 91.8431 69.9178 91.7924 69.449L87.738 30.488ZM76.218 24.1989L76.6164 28.0192V28.0504L76.8547 30.3707L79.9641 60.1987C74.3625 58.019 68.3231 57.3784 63.1121 57.3784C57.7918 57.3784 53.3426 58.0503 51.0921 58.4682L51.0999 24.0192C60.3968 17.8786 73.0379 22.7887 76.2169 24.1989L76.218 24.1989ZM48.48 23.9801V58.4601C43.9683 57.632 30.929 55.8312 19.671 60.1984L23.0304 27.9284L23.421 24.1901C26.6085 22.7878 39.191 17.9099 48.48 23.9801ZM49.8198 74.6711C47.3003 74.1204 28.8898 70.4016 13.4918 76.5617L14.2613 69.1906C28.2023 65.632 49.3003 70.0188 49.5233 70.0696C49.6132 70.0891 49.703 70.1008 49.7929 70.1008H49.8515C49.9413 70.1008 50.0311 70.0891 50.121 70.0696C50.3397 70.0188 71.43 65.6399 85.383 69.1906L86.1525 76.5617C70.7615 70.3976 52.3398 74.1203 49.8198 74.6711ZM86.9798 66.8977C86.9681 66.8977 86.9681 66.8977 86.9798 66.8977C86.9681 66.8977 86.9603 66.886 86.9485 66.886C73.0505 62.9172 52.4176 66.9056 49.8196 67.4368C47.218 66.9056 26.5896 62.9173 12.6986 66.886C12.6868 66.886 12.6868 66.886 12.679 66.8977H12.6673C11.9954 67.0892 11.3392 67.2962 10.679 67.5384L14.4407 31.4994C15.3821 31.0775 17.4915 30.2182 20.2415 29.4994L16.972 60.9294C16.8939 61.6481 17.1908 62.3278 17.7728 62.7575C18.3431 63.1793 19.1126 63.2692 19.7611 62.9879C32.1401 57.7496 47.3631 60.859 49.3121 61.2965C49.5113 61.3747 49.7222 61.4059 49.9215 61.3864C50.0426 61.3747 50.1715 61.3551 50.2926 61.3083C52.0231 60.9176 67.4015 57.7067 79.8945 62.9997C80.1563 63.109 80.4258 63.1598 80.6953 63.1598C81.125 63.1598 81.5469 63.0192 81.9062 62.7614C82.4765 62.3317 82.7773 61.652 82.707 60.9411L79.4804 30.1011L79.4218 29.5112C82.1132 30.2222 84.2109 31.0698 85.2226 31.5112L88.9726 67.5422C88.3203 67.3079 87.6595 67.1009 86.9798 66.8977Z" fill="black"/>
<path d="M28.961 30.32H44.133C44.8518 30.32 45.4416 29.7302 45.4416 29.0114C45.4416 28.2926 44.8518 27.7028 44.133 27.7028L28.961 27.6989C28.2423 27.6989 27.6524 28.2887 27.6524 29.0075C27.6485 29.7302 28.2305 30.32 28.961 30.32Z" fill="black"/>
<path d="M28.148 37.762H43.32C44.0388 37.762 44.6286 37.1722 44.6286 36.4534C44.6286 35.7346 44.0388 35.1448 43.32 35.1448L28.148 35.1409C27.4293 35.1409 26.8394 35.7307 26.8394 36.4495C26.8394 37.1722 27.4214 37.762 28.148 37.762Z" fill="black"/>
<path d="M27.328 45.199H42.5C43.2188 45.199 43.8086 44.6092 43.8086 43.8904C43.8086 43.1716 43.2188 42.5818 42.5 42.5818L27.328 42.5779C26.6093 42.5779 26.0194 43.1677 26.0194 43.8865C26.0194 44.6092 26.6092 45.199 27.328 45.199Z" fill="black"/>
<path d="M26.52 52.641H41.692C42.4107 52.641 43.0006 52.0512 43.0006 51.3324C43.0006 50.6136 42.4108 50.0238 41.692 50.0238L26.52 50.0199C25.8012 50.0199 25.2114 50.6097 25.2114 51.3285C25.2114 52.0512 25.8012 52.641 26.52 52.641Z" fill="black"/>
<path d="M55.75 30.32H70.922C71.6407 30.32 72.2306 29.7302 72.2306 29.0114C72.2306 28.2926 71.6408 27.7028 70.922 27.7028L55.75 27.6989C55.0312 27.6989 54.4414 28.2887 54.4414 29.0075C54.4414 29.7302 55.0195 30.32 55.75 30.32Z" fill="black"/>
<path d="M56.559 35.129C55.8402 35.129 55.2504 35.7188 55.2504 36.4376C55.2504 37.1564 55.8402 37.7462 56.559 37.7462H71.731C72.4497 37.7462 73.0396 37.1564 73.0396 36.4376C73.0396 35.7188 72.4498 35.129 71.731 35.129H56.559Z" fill="black"/>
<path d="M57.371 42.578C56.6522 42.578 56.0624 43.1678 56.0624 43.8866C56.0624 44.6054 56.6522 45.1952 57.371 45.1952H72.543C73.2617 45.1952 73.8516 44.6054 73.8516 43.8866C73.8516 43.1678 73.2618 42.578 72.543 42.578H57.371Z" fill="black"/>
<path d="M58.18 50.02C57.4613 50.02 56.8714 50.6098 56.8714 51.3286C56.8714 52.0474 57.4612 52.6372 58.18 52.6372H73.352C74.0707 52.6372 74.6606 52.0474 74.6606 51.3286C74.6606 50.6098 74.0708 50.02 73.352 50.02H58.18Z" fill="black"/>
<path d="M50.43 14.371C51.1488 14.371 51.7386 13.7812 51.7386 13.0624V5.0741C51.7386 4.35535 51.1488 3.7655 50.43 3.7655C49.7112 3.7655 49.1214 4.35534 49.1214 5.0741V13.0624C49.1214 13.7812 49.7112 14.371 50.43 14.371Z" fill="black"/>
<path d="M8.7812 29.93L2.2304 23.3792C1.71868 22.8675 0.8906 22.8675 0.3788 23.3792C-0.13292 23.8909 -0.13292 24.719 0.3788 25.2308L6.9296 31.7816C7.19132 32.0433 7.51944 32.1605 7.85929 32.1605C8.19914 32.1605 8.53117 32.0316 8.78898 31.7816C9.3007 31.2699 9.30073 30.4418 8.7812 29.93Z" fill="black"/>
<path d="M99.621 24.469C99.1093 23.9573 98.2812 23.9573 97.7694 24.469L92.3085 29.9299C91.7968 30.4416 91.7968 31.2697 92.3085 31.7815C92.5702 32.0432 92.8983 32.1604 93.2382 32.1604C93.578 32.1604 93.9101 32.0315 94.1679 31.7815L99.6288 26.3206C100.129 25.8206 100.129 24.9886 99.621 24.469Z" fill="black"/>
<path d="M22.461 11.57C22.6797 12.0583 23.1602 12.3591 23.6602 12.3591C23.8399 12.3591 24.0118 12.32 24.1914 12.2497C24.8516 11.9606 25.1602 11.1911 24.8633 10.5192L21.2344 2.23798C20.9454 1.57782 20.1758 1.26923 19.5039 1.5661C18.8438 1.85516 18.5352 2.6247 18.832 3.2966L22.461 11.57Z" fill="black"/>
<path d="M75.879 11.27C76.0392 11.3286 76.1993 11.3598 76.3595 11.3598C76.879 11.3598 77.379 11.0395 77.5783 10.5317L80.7697 2.35203C81.0314 1.68016 80.6994 0.922326 80.0314 0.652826C79.3595 0.391106 78.6017 0.723138 78.3322 1.39111L75.1408 9.57081C74.8713 10.2388 75.1993 11.0005 75.879 11.27Z" fill="black"/>
</svg>
